<svg width="356" height="161" viewBox="0 0 356 161" fill="none" xmlns="http://www.w3.org/2000/svg">
<path d="M174.48 121.8C180.53 121.18 195.04 115.97 197.98 113.38C197.58 111.13 197.17 108.81 196.77 106.49C195.66 100.12 194.58 93.74 194.14 87.29C193.79 82.14 193.95 77 195.24 71.96C195.77 69.86 196.5 67.84 197.53 65.94C198.88 63.46 200.64 61.34 202.96 59.7C203.3 59.46 203.62 59.2 204.05 58.87C203.81 58.15 203.57 57.45 203.35 56.79C199.64 56.79 198.64 55.78 197.82 52.49C197.32 52.45 196.78 52.37 196.24 52.37C192.76 52.36 189.28 52.37 185.81 52.35C185.12 52.35 184.4 52.32 183.76 52.09C182.14 51.52 181.07 49.78 181.22 48.16C181.38 46.37 182.7 44.89 184.49 44.56C184.96 44.47 185.46 44.48 185.94 44.48C190.25 44.48 194.57 44.48 198.88 44.48C199.44 44.48 200 44.49 200.55 44.56C203.09 44.88 205.46 45.57 207.2 47.71C207.58 47.49 207.86 47.29 208.17 47.16C209.63 46.52 210.64 45.48 211.36 44.05C212.14 42.48 213.51 41.56 215.14 40.96C217.13 40.23 219.2 39.98 221.28 39.89C222.79 39.83 224.33 39.72 225.81 40.03C226.6 41 226.73 42.14 226.85 43.22C227.22 46.35 227.15 49.48 226.18 52.51C225.89 53.43 225.45 54.31 225.01 55.17C224.56 56.05 223.79 56.41 222.79 56.46C219.83 56.62 216.96 56.25 214.2 55.16C213.81 55.01 213.43 54.85 213.03 54.69C212.24 55.1 212.48 55.69 212.67 56.37C213.29 56.47 213.89 56.56 214.59 56.67C214.7 57.06 214.85 57.44 214.92 57.83C216.45 65.91 218.66 73.79 221.94 81.35C223.1 84.03 224.41 86.64 225.98 89.11C226.23 89.51 226.43 89.95 226.7 90.48C225.67 90.95 224.72 91.35 223.81 91.82C222.82 92.32 221.84 92.85 220.9 93.45C220.02 94.01 219.17 94.62 218.37 95.28C217.52 95.99 216.71 96.76 215.94 97.57C215.24 98.3 214.54 99.05 213.97 100.31C215.11 99.88 215.76 99.26 216.51 98.84C217.36 98.36 218.2 97.86 219.07 97.43C219.88 97.02 220.71 96.66 221.55 96.33C222.45 95.97 223.37 95.64 224.3 95.37C225.17 95.12 226.05 94.93 226.94 94.76C227.83 94.59 228.72 94.44 229.61 94.34C230.58 94.22 231.55 94.13 232.52 94.09C233.42 94.06 234.33 94.07 235.23 94.13C236.2 94.2 237.17 94.32 238.13 94.47C239.02 94.61 239.91 94.78 240.79 94.99C241.73 95.22 242.67 95.49 243.59 95.8C244.45 96.09 245.29 96.43 246.11 96.79C246.94 97.16 247.75 97.55 248.54 97.99C249.39 98.46 250.22 98.97 251.03 99.51C251.78 100.01 252.51 100.55 253.21 101.12C253.97 101.73 254.7 102.38 255.4 103.05C256.05 103.68 256.67 104.34 257.26 105.02C257.85 105.7 258.42 106.41 258.95 107.14C259.52 107.93 260.06 108.74 260.56 109.57C261.03 110.34 261.46 111.14 261.86 111.95C262.28 112.83 262.67 113.72 263.01 114.63C263.33 115.46 263.57 116.32 263.87 117.24C261.98 118.26 259.87 118.2 258.02 119.02C258.88 120.96 259.72 122.76 260.48 124.6C261.23 126.41 261.68 128.32 261.82 130.27C261.96 132.27 261.98 134.3 261.88 136.31C261.78 138.33 261.28 140.29 260.62 142.21C259.98 144.06 259.15 145.82 258.14 147.49C257.09 149.22 255.89 150.85 254.42 152.25C246.48 159.84 237.24 162.18 226.74 158.85C220.91 157 216.34 153.33 212.96 148.22C209.58 143.12 208.28 137.44 208.61 131.24C207.99 131.29 207.52 131.28 207.07 131.38C205.85 131.66 204.65 132 203.43 132.29C203.04 132.38 202.63 132.37 202.16 132.41C201.3 129.13 200.83 125.84 199.89 122.62C199.57 122.71 199.36 122.72 199.2 122.81C193.92 126.02 188.15 128 182.24 129.67C175.87 131.47 169.4 132.76 162.85 133.62C158.44 134.2 153.99 134.44 149.56 134.84C149.22 134.87 148.88 134.91 148.45 134.96C148.34 135.46 148.2 135.91 148.14 136.37C146.68 148.06 137.93 157.44 126.35 159.47C110.91 162.18 97.24 151.61 95.13 136.97C95.05 136.42 94.99 135.87 94.9 135.2C94.43 135.12 93.97 134.99 93.51 134.98C91.92 134.95 90.33 134.97 88.7 134.97C88.14 133.36 88.43 131.82 88.42 130.33C88.4 128.73 88.5 127.13 88.64 125.54C88.77 124.02 88.95 122.5 89.21 120.99C89.47 119.48 89.77 117.98 90.18 116.51C90.6 114.97 91.12 113.45 91.68 111.96C92.21 110.54 92.84 109.17 93.47 107.66C92.52 107.35 91.7 107.5 90.9 107.46C88.28 107.32 86.52 105.41 86.61 102.81C86.69 100.61 88.3 98.86 90.5 98.61C91.05 98.55 91.61 98.57 92.17 98.57C94.67 98.57 97.18 98.57 99.76 98.57C101.11 97.3 102.48 96.03 103.82 94.73C104 94.55 104.17 94.25 104.17 94.01C104.19 93.05 104.36 92.08 104.05 91.14C103.21 90.73 102.36 90.89 101.54 90.89C91.45 90.88 81.37 90.89 71.28 90.89C70.58 90.89 69.88 90.92 69.19 90.85C66.68 90.61 64.91 88.66 65.02 86.25C65.13 83.6 67.39 81.94 69.31 81.97C69.87 81.97 70.42 81.96 70.98 81.96C94.77 81.96 118.56 81.97 142.35 81.95C146.41 81.95 150.4 82.32 154.27 83.62C162.74 86.46 168.76 91.98 172.25 100.18C175.01 106.67 175.73 113.45 174.66 120.43C174.6 120.83 174.55 121.23 174.47 121.82L174.48 121.8ZM217.74 128.92C215.47 135.32 218.06 145.8 227.75 150.25C236.14 154.1 246.06 151.02 250.93 143.16C256.01 134.97 253.22 125.15 248.55 121.25C238.56 123.7 228.5 126.16 218.45 128.63C218.19 128.69 217.95 128.83 217.74 128.92ZM103.5 135.04C103.5 135.51 103.46 135.79 103.5 136.06C105.44 147.38 115.87 152.74 124.41 151.31C132.09 150.03 138.33 144.06 139.64 136.44C139.72 135.99 139.64 135.52 139.64 135.08C137.53 134.78 130.75 134.82 129.15 135.13C128.96 135.54 128.77 135.99 128.55 136.41C127.19 139.05 125.01 140.48 122.05 140.53C119 140.58 116.75 139.15 115.31 136.46C115.05 135.98 114.82 135.48 114.59 135.03H103.49L103.5 135.04Z" fill="#F6BD75"/>
<path d="M135.74 56.5101C141.81 58.1301 146.6 61.3601 149.97 66.5601C152.05 69.7601 153.27 73.2501 153.53 77.1201C153.14 77.2101 152.87 77.3101 152.61 77.3301C149.62 77.5001 109.68 77.3601 108.06 77.1601C108.04 76.8001 107.95 76.4101 107.99 76.0301C108.37 72.3501 109.71 69.0201 111.8 66.0101C114.92 61.5101 119.13 58.4701 124.39 56.9101C124.72 56.8101 125.05 56.7001 125.47 56.5701C125.6 56.0601 125.73 55.5401 125.87 55.0201C126.55 52.4701 128.55 50.9701 131.06 51.1101C133.41 51.2501 135.2 52.9801 135.6 55.5001C135.64 55.7701 135.67 56.0401 135.73 56.5101H135.74Z" fill="#F6BD75"/>
<path d="M79.09 107.46C76.6 107.65 74.8801 105.82 74.4501 104.08C74.2401 103.23 74.2901 102.44 74.5701 101.63C75.3101 99.5 77.2401 98.36 79.6701 98.6C81.7401 98.81 83.4101 100.41 83.6901 102.49C84.0101 104.97 81.96 107.63 79.09 107.46Z" fill="#F6BD75"/>
<path d="M235.41 126.21C238.75 126.12 242.78 128.82 242.71 133.71C242.65 138.05 239.16 140.94 235.35 140.95C231.37 140.95 227.98 137.86 227.92 133.55C227.86 129.48 231.29 126.18 235.41 126.22V126.21Z" fill="#F6BD75"/>
<path d="M103.04 77.34H100.84C84.2104 77.34 67.5904 77.34 50.9604 77.33C49.7904 77.33 48.5904 77.24 47.4504 76.98C44.6904 76.36 42.7304 74.68 41.6004 72.09C40.3604 69.26 40.3804 66.39 41.6804 63.59C43.0904 60.56 45.5804 58.97 48.8704 58.6C49.6304 58.51 50.4004 58.55 51.1604 58.55C62.7804 58.55 74.4004 58.55 86.0104 58.54C87.0404 58.54 88.0904 58.44 89.1104 58.25C92.4804 57.63 96.4004 54.27 96.2704 48.95C96.1604 44.61 93.0404 40.96 88.7504 40.15C87.8004 39.97 86.8204 39.92 85.8504 39.92C79.8004 39.9 73.7404 39.92 67.6904 39.91C67.0604 39.91 66.4404 39.91 65.8104 39.89C61.9104 39.7 58.9104 37.44 57.7104 33.76C56.8304 31.05 57.0204 28.4 58.3404 25.87C59.6004 23.44 61.6004 21.92 64.3004 21.42C65.2504 21.24 66.2304 21.16 67.2004 21.16C71.3704 21.13 75.5504 21.15 79.7204 21.15C80.4104 21.15 81.1004 21.13 81.8804 21.11C81.9604 20.53 82.0704 20.07 82.0704 19.6C82.0904 17.23 82.1404 14.87 82.0704 12.5C81.9104 7.05997 86.4204 0.569959 94.0804 0.179959C94.6404 0.149959 95.1904 0.179959 95.7504 0.179959C152.1 0.179959 208.45 0.179959 264.81 0.179959C266.13 0.179959 267.44 0.189957 268.75 0.489957C274.3 1.75996 278.44 6.55998 278.62 12.23C278.74 16.26 278.64 20.3 278.62 24.33C278.62 24.53 278.53 24.73 278.49 24.91C277.93 25.41 277.28 25.22 276.68 25.22C272.3 25.24 267.91 25.22 263.53 25.23C262.85 25.23 262.18 25.29 261.46 25.33C261.17 26.19 261.26 26.95 261.26 27.7C261.26 34.59 261.26 41.47 261.26 48.36C261.26 57.47 261.26 66.59 261.26 75.7C261.26 76.33 261.22 76.96 261.3 77.58C261.49 79.09 262.68 80.12 264.14 80.11C265.6 80.11 266.77 79.06 266.95 77.55C267.02 76.93 266.99 76.3 266.99 75.67C266.99 62.1 266.99 48.54 266.99 34.97C266.99 34.14 266.99 33.32 266.99 32.39C267.51 32.3 267.89 32.16 268.28 32.16C273.91 32.19 279.55 32.18 285.18 32.29C287.89 32.34 290.58 32.72 293.2 33.51C295.85 34.31 298.17 35.7 300.15 37.59C302.21 39.56 304.21 41.59 306.21 43.63C313.04 50.57 319.86 57.53 326.69 64.47C327.57 65.36 328.49 66.21 329.39 67.08C331.34 68.94 333.62 70.23 336.18 71.03C338.17 71.65 340.19 72.19 342.17 72.83C344.02 73.43 345.88 74.03 347.66 74.79C352.45 76.84 354.89 80.61 354.96 85.73C355.08 94.22 354.99 102.7 354.98 111.19C354.98 111.39 354.89 111.59 354.86 111.73C354.31 112.33 353.64 112.12 353.05 112.12C348.95 112.14 344.84 112.13 340.74 112.13C336.5 112.13 332.25 112.13 328.01 112.13C327.33 112.13 326.62 112.01 325.89 112.4C325.89 113.23 325.9 114.05 325.89 114.88C325.76 123.45 322.07 130.09 314.63 134.29C301.01 141.98 284.25 133.55 281.99 118.33C281.73 116.6 281.62 114.88 281.77 113.13C281.79 112.87 281.72 112.61 281.67 112.25C279.19 112 276.76 112.16 274.35 112.13C271.99 112.1 269.63 112.13 267.43 112.13C266.6 111.64 266.48 110.9 266.19 110.29C263.05 103.79 258.43 98.62 252.28 94.85C246.64 91.39 240.5 89.6 233.88 89.5C233.32 89.5 232.77 89.48 232.21 89.46C232.08 89.46 231.94 89.39 231.75 89.33C229.4 86.43 227.66 83.1 226.16 79.66C223.71 74.04 221.92 68.19 220.53 62.23C220.47 61.97 220.46 61.69 220.41 61.31C220.86 61.24 221.25 61.15 221.64 61.12C222.26 61.08 222.89 61.08 223.52 61.06C225.61 60.98 227.28 60.07 228.41 58.32C229.12 57.22 229.78 56.05 230.24 54.83C230.75 53.47 231.12 52.04 231.33 50.6C231.78 47.42 231.81 44.22 231.14 41.05C230.76 39.24 229.95 37.4 228.76 35.54C228.7 35.51 228.64 35.46 228.57 35.45C224.4 35.23 220.24 35.09 216.1 35.9C212.61 36.58 209.68 38.11 207.68 41.17C207.57 41.33 207.38 41.45 207.16 41.64C206.86 41.54 206.52 41.47 206.22 41.33C203.96 40.29 201.56 39.92 199.11 39.88C194.52 39.81 189.93 39.81 185.34 39.88C181.67 39.93 178.93 41.61 177.36 44.95C174.86 50.31 178.7 56.67 184.61 56.93C187.39 57.05 190.17 56.96 192.96 56.97C193.38 56.97 193.79 56.97 194.29 56.97C194.65 57.38 195.01 57.78 195.37 58.2C195.68 58.56 195.97 58.94 196.28 59.33C196.1 59.64 195.98 59.89 195.82 60.1C192.78 63.97 191.15 68.43 190.26 73.21C189.3 78.38 189.21 83.58 189.66 88.8C190.25 95.66 191.4 102.45 192.58 109.23C192.69 109.84 192.73 110.45 192.8 111.01C190.78 112.32 182.59 115.29 179.98 115.67C179.57 114.99 179.78 114.21 179.75 113.48C179.54 108.15 178.55 102.98 176.4 98.08C173.07 90.46 167.71 84.74 160.24 81.04C159.68 80.76 159.14 80.47 158.48 80.13C158.38 79.25 158.26 78.36 158.19 77.47C157.27 66.27 151.6 58.39 141.51 53.61C141.13 53.43 140.72 53.33 140.36 53.12C140.08 52.95 139.81 52.71 139.62 52.44C139.38 52.1 139.25 51.7 139.04 51.34C135.28 44.85 126.11 44.86 122.37 51.34C122.27 51.52 122.15 51.7 122.09 51.9C121.82 52.7 121.24 53.08 120.48 53.38C116.82 54.85 113.6 57.02 110.88 59.88C106.72 64.25 104.22 69.42 103.41 75.4C103.33 76.01 103.19 76.6 103.05 77.32L103.04 77.34ZM318.08 67.34C317.6 66.72 317.42 66.43 317.2 66.2C311.9 60.59 306.61 54.97 301.28 49.38C299.74 47.77 298 46.38 296.08 45.22C293.28 43.52 290.28 42.58 286.98 42.61C284.27 42.63 281.56 42.61 278.84 42.61C278.3 42.61 277.76 42.67 277.22 42.71C277.13 43.01 277.01 43.2 277.01 43.39C277.01 51.11 277.01 58.83 277.01 66.55C277.01 66.74 277.12 66.93 277.21 67.2C277.47 67.25 277.73 67.33 277.99 67.33C291.2 67.33 304.4 67.33 318.06 67.33L318.08 67.34Z" fill="#6659B3"/>
<path d="M16.6902 77.3399C14.5402 77.3399 12.3802 77.3699 10.2302 77.3299C9.33022 77.3099 8.42019 77.2299 7.55019 77.0399C3.76019 76.2299 1.1002 73.2299 0.680199 69.3699C0.480199 67.5499 0.570194 65.7499 1.30019 64.0499C2.75019 60.6599 5.38022 58.8999 9.01022 58.5699C9.29022 58.5499 9.5702 58.5499 9.8402 58.5499C14.3502 58.5499 18.8702 58.5499 23.3802 58.5499C24.1402 58.5499 24.9202 58.5899 25.6502 58.7499C30.3402 59.7899 33.3502 64.1999 32.6802 69.0699C32.1902 72.6299 30.4802 75.32 27.0102 76.67C25.8402 77.13 24.6002 77.3299 23.3402 77.3199C21.1202 77.3199 18.9002 77.3199 16.6702 77.3199L16.6902 77.3399Z" fill="#6659B3"/>
<path d="M97.8802 126.22C97.4602 124.97 97.8302 123.78 98.0302 122.66C100.03 111.36 105.9 102.7 115.93 97C122.08 93.5 128.74 91.63 135.78 90.96C138.58 90.7 141.38 90.47 144.18 90.63C146.63 90.77 149.1 91.05 151.5 91.56C158.28 93 162.8 97.26 165.43 103.52C167.93 109.48 167.83 115.6 166.04 121.76C165.61 123.23 164.77 124.06 163.29 124.39C159.72 125.18 156.15 125.98 152.47 126.03C146.43 126.12 140.39 126.13 134.35 126.18C123.12 126.27 111.9 126.37 100.67 126.46C99.7502 126.46 98.8102 126.6 97.8902 126.22H97.8802Z" fill="#6659B3"/>
<path d="M304.45 108.54C307.79 108.45 311.82 111.15 311.75 116.04C311.69 120.38 308.2 123.27 304.39 123.28C300.41 123.28 297.02 120.19 296.96 115.88C296.9 111.81 300.33 108.51 304.45 108.55V108.54Z" fill="white"/>
</svg>
