<svg width="538" height="116" viewBox="0 0 538 116" fill="none" xmlns="http://www.w3.org/2000/svg">
<path d="M207.671 57.3625C207.497 55.4847 206.752 54.026 205.435 52.9862C204.119 51.9465 202.332 51.4266 200.074 51.4266C198.54 51.4266 197.245 51.6594 196.189 52.1249C195.133 52.575 194.323 53.2035 193.758 54.0105C193.208 54.8174 192.933 55.733 192.933 56.7572C192.905 57.6108 193.071 58.3557 193.433 58.9919C193.809 59.6282 194.323 60.1791 194.974 60.6447C195.625 61.0947 196.377 61.4904 197.231 61.8318C198.085 62.1577 198.996 62.4371 199.966 62.6698L203.959 63.6941C205.898 64.1596 207.678 64.7804 209.299 65.5563C210.919 66.3322 212.323 67.2866 213.509 68.4195C214.696 69.5523 215.615 70.8869 216.266 72.4233C216.932 73.9596 217.272 75.721 217.286 77.7074C217.272 80.6249 216.577 83.1544 215.202 85.296C213.842 87.422 211.874 89.0747 209.299 90.2542C206.738 91.418 203.648 92 200.031 92C196.442 92 193.317 91.4103 190.654 90.2309C188.006 89.0515 185.937 87.3056 184.447 84.9933C182.971 82.6656 182.197 79.7869 182.125 76.3572H191.219C191.32 77.9557 191.747 79.2903 192.499 80.361C193.266 81.4163 194.286 82.2155 195.56 82.7587C196.848 83.2863 198.302 83.5501 199.922 83.5501C201.514 83.5501 202.896 83.3018 204.068 82.8052C205.254 82.3086 206.173 81.618 206.824 80.7335C207.476 79.8489 207.801 78.8325 207.801 77.6841C207.801 76.6133 207.505 75.7132 206.911 74.9838C206.332 74.2545 205.479 73.6337 204.35 73.1216C203.236 72.6095 201.869 72.1439 200.248 71.7249L195.408 70.4214C191.66 69.4437 188.701 67.9151 186.531 65.8356C184.36 63.7561 183.282 60.955 183.297 57.4323C183.282 54.5458 183.998 52.0241 185.445 49.867C186.907 47.7099 188.911 46.0261 191.458 44.8157C194.004 43.6052 196.898 43 200.139 43C203.439 43 206.318 43.6052 208.778 44.8157C211.252 46.0261 213.177 47.7099 214.551 49.867C215.926 52.0241 216.635 54.5226 216.678 57.3625H207.671Z" fill="#262626"/>
<path d="M221.915 51.962V43.6518H258.422V51.962H244.813V91.3249H235.523V51.962H221.915Z" fill="#262626"/>
<path d="M266.664 91.3249H256.593L271.939 43.6518H284.05L299.373 91.3249H289.302L278.168 54.5458H277.82L266.664 91.3249ZM266.035 72.5862H289.823V80.4542H266.035V72.5862Z" fill="#262626"/>
<path d="M297.583 43.6518H308.109L318.245 64.1829H318.68L328.816 43.6518H339.342L323.129 74.4717V91.3249H313.796V74.4717L297.583 43.6518Z" fill="#262626"/>
<path d="M358.622 91.3249V43.6518H368.02V63.3216H387.098V43.6518H396.475V91.3249H387.098V71.6318H368.02V91.3249H358.622Z" fill="#262626"/>
<path d="M445.071 67.4884C445.071 72.6871 444.153 77.1099 442.315 80.7568C440.492 84.4036 438.003 87.1892 434.848 89.1135C431.709 91.0223 428.178 91.9767 424.257 91.9767C420.306 91.9767 416.761 91.0146 413.621 89.0903C410.481 87.166 408 84.3804 406.177 80.7335C404.353 77.0866 403.442 72.6716 403.442 67.4884C403.442 62.2896 404.353 57.8668 406.177 54.22C408 50.5731 410.481 47.7952 413.621 45.8865C416.761 43.9622 420.306 43 424.257 43C428.178 43 431.709 43.9622 434.848 45.8865C438.003 47.7952 440.492 50.5731 442.315 54.22C444.153 57.8668 445.071 62.2896 445.071 67.4884ZM435.543 67.4884C435.543 64.1208 435.073 61.2809 434.132 58.9686C433.206 56.6564 431.897 54.9028 430.204 53.7078C428.511 52.5129 426.528 51.9154 424.257 51.9154C421.985 51.9154 420.002 52.5129 418.31 53.7078C416.617 54.9028 415.3 56.6564 414.359 58.9686C413.433 61.2809 412.97 64.1208 412.97 67.4884C412.97 70.8559 413.433 73.6958 414.359 76.0081C415.3 78.3203 416.617 80.0739 418.31 81.2689C420.002 82.4638 421.985 83.0613 424.257 83.0613C426.528 83.0613 428.511 82.4638 430.204 81.2689C431.897 80.0739 433.206 78.3203 434.132 76.0081C435.073 73.6958 435.543 70.8559 435.543 67.4884Z" fill="#262626"/>
<path d="M452.033 43.6518H463.623L475.865 75.6822H476.386L488.627 43.6518H500.218V91.3249H491.102V60.2955H490.733L479.229 91.0922H473.022L461.518 60.1791H461.149V91.3249H452.033V43.6518Z" fill="#262626"/>
<path d="M507.961 91.3249V43.6518H537.913V51.962H517.359V63.3216H536.372V71.6318H517.359V83.0147H538V91.3249H507.961Z" fill="#262626"/>
<path d="M84.6052 55.9503H85.3647C86.5884 55.9503 87.5794 55.1021 87.5794 54.0567V45.1279C87.5794 44.0825 86.5884 43.2343 85.3647 43.2343H31.3644C30.1417 43.2343 29.1497 44.0825 29.1497 45.1279V54.0567C29.1497 55.1021 30.1408 55.9503 31.3644 55.9503H84.6052Z" fill="#6659B3"/>
<path d="M85.1655 40.356V4.0882C85.1655 2.49891 83.6588 1.20992 81.799 1.20992H34.9307C33.0719 1.20992 31.5642 2.49811 31.5642 4.0882V40.356C31.5642 41.9453 33.0709 43.2343 34.9307 43.2343H81.799C83.6579 43.2343 85.1655 41.9453 85.1655 40.356Z" fill="#F6BD75"/>
<path d="M167.613 77.6685C166.587 71.7426 161.884 56.162 140.765 55.4312C139.822 55.3985 138.99 54.8913 138.666 54.1334L123.562 18.8279C123.411 18.4749 123.388 18.1172 123.463 17.7825L125.737 16.1677C127.058 16.1677 128.111 15.2253 128.051 14.0976L127.597 5.5242C127.541 4.466 126.522 3.63303 125.283 3.63303H115.063C114.229 3.63303 113.459 4.01717 113.048 4.63771L107.631 12.8198C107.439 13.1089 107.336 13.4347 107.33 13.767L105.773 74.1617C105.754 75.2439 104.723 76.1136 103.457 76.1136H86.9213C85.6415 76.1136 84.6047 75.2271 84.6047 74.1329V55.7499C84.6047 54.6557 83.5678 53.7692 82.2881 53.7692H43.7792C43.6503 53.7692 43.5233 53.778 43.3962 53.7964C41.1441 54.1278 20.7001 57.8175 19.6314 82.7734C19.5838 83.8963 20.6338 84.8323 21.9481 84.8323H24.4076C24.3711 84.3244 24.3469 83.814 24.3469 83.2981C24.3469 69.6797 37.26 58.6401 53.1876 58.6401C69.1161 58.6401 82.0284 69.6797 82.0284 83.2981C82.0284 83.814 82.0041 84.3244 81.9667 84.8323H105.937C105.901 84.3244 105.876 83.814 105.876 83.2981C105.876 69.6797 118.789 58.6401 134.717 58.6401C149.312 58.6401 161.366 67.9107 163.284 79.9383C163.326 79.9367 163.366 79.9279 163.409 79.9279H165.32C166.729 79.9287 167.819 78.8609 167.613 77.6685Z" fill="#6659B3"/>
<path d="M53.1879 58.6409C37.2594 58.6409 24.3472 69.6805 24.3472 83.299C24.3472 83.8149 24.3715 84.3252 24.4079 84.8331H81.968C82.0044 84.3252 82.0296 83.8149 82.0296 83.299C82.0287 69.6813 69.1164 58.6409 53.1879 58.6409Z" fill="#6659B3"/>
<path opacity="0.24" d="M53.1879 58.6409C37.2594 58.6409 24.3472 69.6805 24.3472 83.299C24.3472 83.8149 24.3715 84.3252 24.4079 84.8331H81.968C82.0044 84.3252 82.0296 83.8149 82.0296 83.299C82.0287 69.6813 69.1164 58.6409 53.1879 58.6409Z" fill="#262626"/>
<path d="M134.718 58.6409C118.789 58.6409 105.877 69.6805 105.877 83.299C105.877 83.8149 105.901 84.3252 105.938 84.8331H158.777C160.057 84.8331 161.094 83.9466 161.094 82.8525V81.9085C161.094 80.8511 162.065 79.995 163.285 79.9391C161.368 67.9116 149.313 58.6409 134.718 58.6409Z" fill="#6659B3"/>
<path opacity="0.24" d="M134.718 58.6409C118.789 58.6409 105.877 69.6805 105.877 83.299C105.877 83.8149 105.901 84.3252 105.938 84.8331H158.777C160.057 84.8331 161.094 83.9466 161.094 82.8525V81.9085C161.094 80.8511 162.065 79.995 163.285 79.9391C161.368 67.9116 149.313 58.6409 134.718 58.6409Z" fill="#262626"/>
<path d="M54.5658 60.8571C54.3641 60.8196 54.1548 60.7988 53.94 60.7988H52.7686H33.4446C31.8155 60.7988 30.4946 61.9281 30.4946 63.3209C30.4946 64.5237 31.4811 65.5284 32.7991 65.7799H35.6341C35.8284 65.7799 36.0181 65.7967 36.2021 65.8278C36.2282 65.8318 36.2535 65.8374 36.2787 65.8422C37.5967 66.0938 38.5831 67.0985 38.5831 68.3012C38.5831 69.385 37.7817 70.3066 36.6589 70.6636C36.3394 70.765 35.9947 70.8233 35.6341 70.8233H30.887H18.1344C17.0116 71.1795 16.2092 72.1012 16.2092 73.1857C16.2092 74.2559 16.9902 75.1679 18.0905 75.5345H26.6031C26.9805 75.5345 27.3401 75.5976 27.6718 75.7078H28.0164C28.0006 75.7462 27.9865 75.7853 27.9707 75.8236C28.9104 76.2453 29.5531 77.0863 29.5531 78.0566C29.5531 79.4263 28.2743 80.5388 26.6816 80.5747C26.6807 80.5795 26.6807 80.5843 26.6797 80.5891C26.6339 80.5875 26.5882 80.5835 26.5415 80.5835H8.24779C6.61869 80.5835 5.29785 81.7128 5.29785 83.1056C5.29785 84.4984 6.61869 85.6277 8.24779 85.6277H20.7285H26.5415C26.5714 85.6277 26.6013 85.6245 26.6312 85.6237C26.6312 85.6253 26.6321 85.6261 26.6321 85.6277H29.6483C31.2774 85.6277 32.5983 86.757 32.5983 88.1498C32.5983 89.5427 31.2774 90.6719 29.6483 90.6719H27.9539H26.5144C24.8853 90.6719 23.5654 91.8012 23.5654 93.194C23.5654 94.5869 24.8862 95.7161 26.5144 95.7161H30.887C30.8879 95.7177 30.8898 95.7193 30.8907 95.7209H39.7732C41.4023 95.7209 42.7231 96.8502 42.7231 98.243C42.7231 99.6047 41.4602 100.711 39.8816 100.76H36.2749H33.5978C33.5613 100.76 33.5258 100.764 33.4894 100.765C31.9108 100.814 30.6478 101.921 30.6478 103.282C30.6478 104.675 31.9687 105.805 33.5968 105.805H51.8905C52.1213 105.805 52.3436 105.78 52.5584 105.737C52.6285 105.738 52.6967 105.742 52.7667 105.742C67.281 105.742 79.0471 95.6826 79.0471 83.2733C79.049 71.3752 68.2413 61.647 54.5658 60.8571Z" fill="#262626"/>
<path d="M21.5668 93.0224C21.5668 91.6296 20.2459 90.5003 18.6168 90.5003H5.01707C3.38798 90.5003 2.06714 91.6296 2.06714 93.0224C2.06714 94.4152 3.38798 95.5445 5.01707 95.5445H18.6168C20.2469 95.5445 21.5668 94.4152 21.5668 93.0224Z" fill="#262626"/>
<path d="M25.3556 100.756H20.4057C18.7766 100.756 17.4558 101.886 17.4558 103.278C17.4558 104.671 18.7766 105.801 20.4057 105.801H25.3556C26.9847 105.801 28.3055 104.671 28.3055 103.278C28.3055 101.886 26.9847 100.756 25.3556 100.756Z" fill="#262626"/>
<path d="M13.7855 65.7808H26.0457C27.3404 65.514 28.3035 64.5205 28.3035 63.3313C28.3035 61.9385 26.9827 60.8092 25.3536 60.8092H14.4758C12.8467 60.8092 11.5259 61.9385 11.5259 63.3313C11.5277 64.5205 12.4908 65.514 13.7855 65.7808Z" fill="#262626"/>
<path d="M7.24125 75.7071H10.6218C10.9992 75.7071 11.3579 75.644 11.6895 75.5338C12.7899 75.168 13.5708 74.2551 13.5708 73.185C13.5708 71.7921 12.25 70.6629 10.6209 70.6629H2.94994C1.32084 70.6629 0 71.7921 0 73.185C0 74.5778 1.32084 75.7071 2.94994 75.7071H7.24125Z" fill="#262626"/>
<path d="M71.7956 99.2096C82.0732 90.4226 82.0732 76.176 71.7956 67.3889C61.518 58.6018 44.8546 58.6018 34.577 67.3889C24.2994 76.1759 24.2994 90.4226 34.577 99.2096C44.8547 107.997 61.518 107.997 71.7956 99.2096Z" fill="#262626"/>
<path d="M53.1885 93.3266C59.6656 93.3266 64.9163 88.8374 64.9163 83.2997C64.9163 77.762 59.6656 73.2728 53.1885 73.2728C46.7114 73.2728 41.4607 77.762 41.4607 83.2997C41.4607 88.8374 46.7114 93.3266 53.1885 93.3266Z" fill="white" stroke="#E8E6DD" stroke-width="1.5625" stroke-miterlimit="10" stroke-linecap="round" stroke-linejoin="round"/>
<path d="M160.332 88.5383C163.713 76.4519 154.993 64.3107 140.857 61.4202C126.72 58.5297 112.519 65.9845 109.139 78.0709C105.758 90.1573 114.477 102.298 128.614 105.189C142.75 108.079 156.951 100.625 160.332 88.5383Z" fill="#262626"/>
<path d="M134.718 93.3266C141.195 93.3266 146.446 88.8374 146.446 83.2997C146.446 77.762 141.195 73.2728 134.718 73.2728C128.241 73.2728 122.99 77.762 122.99 83.2997C122.99 88.8374 128.241 93.3266 134.718 93.3266Z" fill="white" stroke="#E8E6DD" stroke-width="1.5625" stroke-miterlimit="10" stroke-linecap="round" stroke-linejoin="round"/>
<path d="M132.572 18.122C126.967 18.122 122.424 14.2374 122.424 9.44554C122.424 4.6537 126.967 0.769913 132.572 0.769913" fill="#7D6ED4"/>
<path d="M131.394 2.41911C135.192 3.10833 138.05 5.99701 138.05 9.44633C138.05 12.8957 135.193 15.7843 131.394 16.4736V2.41911ZM129.648 0.769913V18.122C135.252 18.122 139.796 14.2374 139.796 9.44554C139.796 4.6537 135.252 0.769913 129.648 0.769913Z" fill="#262626"/>
<path d="M133.687 0H128.162V19.2552H133.687V0Z" fill="#7D6ED4"/>
<path d="M115.413 11.6258H96C94.709 11.6258 93.6628 10.7314 93.6628 9.62764C93.6628 8.52392 94.709 7.62944 96 7.62944H115.413C116.704 7.62944 117.75 8.52392 117.75 9.62764C117.75 10.7314 116.704 11.6258 115.413 11.6258Z" fill="#7D6ED4"/>
<path d="M103.94 12.5346H96.4241C94.5466 12.5346 93.0249 11.2336 93.0249 9.62838C93.0249 8.02311 94.5475 6.72212 96.4241 6.72212H103.94C105.818 6.72212 107.339 8.02311 107.339 9.62838C107.339 11.2328 105.818 12.5346 103.94 12.5346Z" fill="#262626"/>
<path d="M67.847 11.4549H55.2056L45.8057 24.9479L56.9683 22.3779L48.5697 36.9738L71.1426 17.0286H59.2093L67.847 11.4549Z" stroke="#262626" stroke-width="1.5625" stroke-miterlimit="10" stroke-linecap="round" stroke-linejoin="round"/>
</svg>
